<svg xmlns="http://www.w3.org/2000/svg" width="55.066" height="47.691" viewBox="0 0 55.066 47.691"><g id="Group_15" data-name="Group 15" transform="translate(-319.467 -83.991)"><g id="Group_14" data-name="Group 14"><path id="Intersection_4" fill="#475569" d="M12.789,17.143a15,15,0,0,1,20.7,0l-1.6,2.141-.018-.018a12.352,12.352,0,0,0-17.469,0l-.018.018Z" data-name="Intersection 4" opacity=".845" transform="translate(323.861 78.999)"/><path id="Intersection_5" fill="#475569" d="M10.384,13.919a19,19,0,0,1,25.511,0l-2.016,2.7a15.647,15.647,0,0,0-21.479,0Z" data-name="Intersection 5" opacity=".652" transform="translate(323.861 78.999)"/><path id="Intersection_6" fill="#475569" d="M7.982,10.7a22.978,22.978,0,0,1,30.313,0l-2,2.679a19.652,19.652,0,0,0-26.316,0Z" data-name="Intersection 6" opacity=".453" transform="translate(323.861 78.999)"/></g><g id="Group_13" data-name="Group 13" transform="translate(427.806 461.061) rotate(-120)"><path id="Intersection_4-2" fill="#475569" d="M12.789,17.143a15,15,0,0,1,20.7,0l-1.6,2.141-.018-.018a12.352,12.352,0,0,0-17.469,0l-.018.018Z" data-name="Intersection 4" opacity=".845" transform="translate(323.861 78.999)"/><path id="Intersection_5-2" fill="#475569" d="M10.384,13.919a19,19,0,0,1,25.511,0l-2.016,2.7a15.647,15.647,0,0,0-21.479,0Z" data-name="Intersection 5" opacity=".652" transform="translate(323.861 78.999)"/><path id="Intersection_6-2" fill="#475569" d="M7.982,10.7a22.978,22.978,0,0,1,30.313,0l-2,2.679a19.652,19.652,0,0,0-26.316,0Z" data-name="Intersection 6" opacity=".453" transform="translate(323.861 78.999)"/></g><circle id="Ellipse_9" cx="11" cy="11" r="11" fill="#475569" data-name="Ellipse 9" transform="translate(336 96)"/><g id="Group_12" data-name="Group 12" transform="translate(613.194 -139.96) rotate(120)"><path id="Intersection_4-3" fill="#475569" d="M12.789,17.143a15,15,0,0,1,20.7,0l-1.6,2.141-.018-.018a12.352,12.352,0,0,0-17.469,0l-.018.018Z" data-name="Intersection 4" opacity=".845" transform="translate(323.861 78.999)"/><path id="Intersection_5-3" fill="#475569" d="M10.384,13.919a19,19,0,0,1,25.511,0l-2.016,2.7a15.647,15.647,0,0,0-21.479,0Z" data-name="Intersection 5" opacity=".652" transform="translate(323.861 78.999)"/><path id="Intersection_6-3" fill="#475569" d="M7.982,10.7a22.978,22.978,0,0,1,30.313,0l-2,2.679a19.652,19.652,0,0,0-26.316,0Z" data-name="Intersection 6" opacity=".453" transform="translate(323.861 78.999)"/></g></g></svg>